<svg width="40" height="40" viewBox="0 0 40 40" fill="none" xmlns="http://www.w3.org/2000/svg">
<g clip-path="url(#clip0_18634_92031)">
<path d="M29 4H11C7.1 4 4 7.2 4 11V29C4 32.9 7.2 36 11 36H29C32.9 36 36 32.8 36 29V11C36 7.2 32.8 4 29 4ZM20 29.1C18.9 29.1 17.8 29 16.7 28.7C15.3 29.6 13.7 30.3 11.9 30.6C12.8 29.7 13.5 28.8 14 27.7C10.5 25.9 8.3 22.8 8.3 19.3C8.3 13.9 13.6 9.5 20 9.5C26.5 9.5 31.7 13.9 31.7 19.3C31.7 24.7 26.5 29.1 20 29.1Z" fill="#34DB50"/>
<path d="M19.9969 29.1C18.8969 29.1 17.7969 29 16.6969 28.7C15.2969 29.6 13.6969 30.3 11.8969 30.6C12.7969 29.7 13.4969 28.8 13.9969 27.7C10.4969 25.9 8.29688 22.8 8.29688 19.3C8.29688 13.9 13.5969 9.5 19.9969 9.5C26.4969 9.5 31.6969 13.9 31.6969 19.3C31.6969 24.7 26.4969 29.1 19.9969 29.1Z" fill="white"/>
</g>
<defs>
<clipPath id="clip0_18634_92031">
<rect width="40" height="40" fill="white"/>
</clipPath>
</defs>
</svg>
