<svg width="48" height="48" viewBox="0 0 48 48" fill="none" xmlns="http://www.w3.org/2000/svg">
<path fill-rule="evenodd" clip-rule="evenodd" d="M24.0002 10.1725H24.0003C28.5233 10.1725 29.0402 10.1725 30.8494 10.3017C32.3866 10.42 33.2746 10.6464 33.8105 10.7831C33.8603 10.7958 33.907 10.8077 33.951 10.8187C34.7263 11.0771 35.2433 11.4648 35.8894 12.111C36.5356 12.7571 36.794 13.274 37.1817 14.0494C37.4402 14.6956 37.6986 15.471 37.6986 17.151C37.8279 18.9602 37.8279 19.4771 37.8279 24.0002C37.8279 28.5233 37.8279 29.0402 37.6986 30.8494C37.5804 32.3866 37.354 33.2746 37.2173 33.8105C37.2046 33.8603 37.1927 33.907 37.1817 33.951C36.9233 34.7263 36.5356 35.2433 35.8894 35.8894C35.2433 36.5356 34.7264 36.794 33.951 37.1817L33.951 37.1817L33.951 37.1817C33.3048 37.4402 32.5294 37.6986 30.8494 37.6986C29.0402 37.8279 28.5233 37.8279 24.0002 37.8279C19.4771 37.8279 18.9602 37.8279 17.151 37.6986C15.6138 37.5804 14.7257 37.354 14.1899 37.2173C14.1401 37.2046 14.0934 37.1927 14.0494 37.1817C13.274 36.9233 12.7571 36.5356 12.111 35.8894C11.4648 35.2433 11.2063 34.7263 10.8187 33.951C10.5602 33.3048 10.3017 32.5294 10.3017 30.8494C10.1725 29.0402 10.1725 28.5233 10.1725 24.0003V24.0002V24.0001C10.1725 19.4771 10.1725 18.9602 10.3017 17.151C10.42 15.6138 10.6464 14.7257 10.7831 14.1899L10.7831 14.1899C10.7958 14.1401 10.8077 14.0934 10.8187 14.0494C11.0771 13.274 11.4648 12.7571 12.111 12.111C12.7571 11.4648 13.274 11.2063 14.0494 10.8187C14.6956 10.5602 15.471 10.3017 17.151 10.3017C18.9602 10.1725 19.4771 10.1725 24.0001 10.1725H24.0002ZM24.0002 7.2002C19.4771 7.2002 18.831 7.2002 17.0217 7.32943C15.2125 7.45866 14.0494 7.71712 12.8863 8.10481C11.8525 8.4925 10.9479 9.00943 10.0433 10.0433C9.00943 10.9479 8.4925 11.8525 8.10481 13.0156C7.71712 14.0494 7.45866 15.3417 7.32943 17.151C7.2002 18.831 7.2002 19.4771 7.2002 24.0002C7.2002 28.5233 7.2002 29.1694 7.32943 30.9786C7.45866 32.7879 7.71712 33.951 8.10481 35.114C8.4925 36.2771 9.13866 37.1817 10.0433 38.0863C10.9479 38.9909 11.8525 39.6371 13.0156 40.0248C14.0494 40.4125 15.3417 40.671 17.151 40.8002H24.0002C28.5233 40.8002 29.1694 40.8002 30.9786 40.671C32.7879 40.5417 33.951 40.2833 35.114 39.8956C36.2771 39.5079 37.1817 38.8617 38.0863 37.9571C38.9909 37.0525 39.6371 36.1479 40.0248 34.9848C40.4125 33.951 40.671 32.6586 40.8002 30.8494V24.0002C40.8002 19.4771 40.8002 18.831 40.671 17.0217C40.5417 15.2125 40.2833 14.0494 39.8956 12.8863C39.5079 11.7233 38.8617 10.8187 37.9571 9.91404C37.0525 9.00943 36.1479 8.36327 34.9848 7.97558C33.951 7.58789 32.6586 7.32943 30.8494 7.2002H24.0002ZM24.0002 15.3418C19.2187 15.3418 15.3418 19.2187 15.3418 24.0003C15.3418 28.7818 19.2187 32.6587 24.0002 32.6587C28.7818 32.6587 32.6587 28.7818 32.6587 24.0003C32.6587 19.2187 28.7818 15.3418 24.0002 15.3418ZM24.0002 29.5572C20.8987 29.5572 18.4433 27.1018 18.4433 24.0003C18.4433 20.8987 20.8987 18.4433 24.0002 18.4433C27.1018 18.4433 29.5571 20.8987 29.5571 24.0003C29.5571 27.1018 27.1018 29.5572 24.0002 29.5572ZM34.9849 15.0833C34.9849 16.2253 34.0591 17.151 32.9172 17.151C31.7752 17.151 30.8495 16.2253 30.8495 15.0833C30.8495 13.9414 31.7752 13.0156 32.9172 13.0156C34.0591 13.0156 34.9849 13.9414 34.9849 15.0833Z" fill="url(#paint0_linear_18684_73420)"/>
<defs>
<linearGradient id="paint0_linear_18684_73420" x1="8.12284" y1="39.7766" x2="39.8752" y2="8.12548" gradientUnits="userSpaceOnUse">
<stop stop-color="#FEC91E"/>
<stop offset="0.25" stop-color="#FB7A12"/>
<stop offset="0.5" stop-color="#F30005"/>
<stop offset="0.744792" stop-color="#DA0051"/>
<stop offset="1" stop-color="#BE00A5"/>
</linearGradient>
</defs>
</svg>
