<svg width="38" height="38" viewBox="0 0 38 38" fill="none" xmlns="http://www.w3.org/2000/svg">
<rect width="38" height="38" rx="19" fill="#FC6423"/>
<path d="M28.6007 17.4112H11.0485C10.8377 17.4112 10.6356 17.3275 10.4866 17.1785C10.3376 17.0295 10.2539 16.8274 10.2539 16.6167V9.46548C10.2539 9.25474 10.3376 9.05264 10.4866 8.90362C10.6356 8.75461 10.8377 8.6709 11.0485 8.6709H23.7617C23.9725 8.6709 24.1746 8.75461 24.3236 8.90362C24.4726 9.05264 24.5563 9.25474 24.5563 9.46548V11.8492L29.1092 16.1797C29.2092 16.2807 29.2772 16.4091 29.3047 16.5486C29.3321 16.6882 29.3178 16.8327 29.2636 16.9642C29.2093 17.0956 29.1174 17.2081 28.9995 17.2877C28.8816 17.3672 28.7429 17.4102 28.6007 17.4112V17.4112Z" stroke="white" stroke-width="1.95588" stroke-linecap="round" stroke-linejoin="round"/>
<path d="M9.38947 29.3302H26.9417C27.1524 29.3302 27.3545 29.2465 27.5035 29.0975C27.6525 28.9485 27.7363 28.7464 27.7363 28.5356V21.3844C27.7363 21.1737 27.6525 20.9716 27.5035 20.8226C27.3545 20.6736 27.1524 20.5898 26.9417 20.5898H14.2284C14.0177 20.5898 13.8156 20.6736 13.6666 20.8226C13.5176 20.9716 13.4339 21.1737 13.4339 21.3844V23.7682L8.88094 28.0986C8.78091 28.1997 8.71292 28.328 8.68547 28.4676C8.65802 28.6071 8.67233 28.7517 8.72661 28.8831C8.78088 29.0146 8.87272 29.1271 8.99062 29.2066C9.10852 29.2861 9.24726 29.3291 9.38947 29.3302V29.3302Z" stroke="white" stroke-width="1.95588" stroke-linecap="round" stroke-linejoin="round"/>
</svg>
