<svg width="79" height="73" viewBox="0 0 79 73" fill="none" xmlns="http://www.w3.org/2000/svg">
<path d="M49.8841 29.8801C47.8049 31.9574 43.7398 33.1946 39.0056 33.1946C34.2714 33.1946 30.2017 31.9574 28.1287 29.8801C26.0557 27.8027 24.8045 23.7366 24.8045 19.0031C24.8045 14.2695 26.0495 10.2065 28.1271 8.12759C30.2048 6.04873 34.276 4.80538 39.0117 4.80538C43.7475 4.80538 47.811 6.04873 49.8902 8.12759C51.9693 10.2065 53.2052 14.271 53.2052 19.0031C53.2052 23.7351 51.9556 27.8012 49.8841 29.8801ZM58.0051 19C58.0051 15.2422 56.8906 11.5687 54.8026 8.44417C52.7146 5.31964 49.7468 2.88436 46.2745 1.4463C42.8022 0.00823259 38.9815 -0.368031 35.2953 0.365088C31.6092 1.09821 28.2233 2.90778 25.5657 5.56498C22.9082 8.22218 21.0984 11.6077 20.3651 15.2933C19.6319 18.9789 20.0082 22.7992 21.4465 26.271C22.8847 29.7428 25.3204 32.7102 28.4453 34.7979C31.5703 36.8857 35.2442 38 39.0026 38C41.498 38 43.969 37.5086 46.2745 36.5537C48.58 35.5989 50.6748 34.1994 52.4394 32.435C54.2039 30.6707 55.6036 28.5762 56.5586 26.271C57.5136 23.9658 58.0051 21.4951 58.0051 19Z" fill="#FC6423"/>
<path d="M42.6682 16.3408V21.5341C42.6695 21.8192 42.5576 22.0931 42.3571 22.2959C42.1567 22.4986 41.884 22.6136 41.5989 22.6156H36.3896C36.106 22.6176 35.8332 22.5069 35.6312 22.3079C35.4292 22.1088 35.3146 21.8377 35.3125 21.5541C35.3125 21.5475 35.3125 21.5408 35.3126 21.5341V16.3408C35.312 16.1992 35.3393 16.0588 35.3929 15.9278C35.4466 15.7967 35.5255 15.6775 35.6252 15.5769C35.7249 15.4764 35.8435 15.3964 35.9741 15.3417C36.1047 15.2869 36.2449 15.2585 36.3865 15.2579L36.3896 15.2578H41.5928C41.7344 15.2582 41.8746 15.2865 42.0053 15.3411C42.136 15.3957 42.2546 15.4754 42.3545 15.5758C42.4544 15.6763 42.5335 15.7954 42.5873 15.9264C42.6411 16.0573 42.6686 16.1976 42.6682 16.3393V16.3408Z" fill="#FC6423"/>
<path d="M47.8993 10.035C46.4265 8.56251 42.9298 7.60938 38.99 7.60938C35.0501 7.60938 31.5533 8.56251 30.0806 10.035C28.608 11.5075 27.6562 15.0084 27.6562 18.9492C27.6562 22.89 28.6019 26.391 30.0806 27.865C31.5594 29.339 35.0501 30.289 38.99 30.289C42.9298 30.289 46.4265 29.3359 47.8993 27.865C49.372 26.394 50.3251 22.89 50.3251 18.9492C50.3251 15.0084 49.3796 11.4998 47.8993 10.035ZM44.459 24.3808C44.1535 24.6863 43.2139 25.6242 38.9593 25.6242C34.7048 25.6242 33.7653 24.6909 33.4598 24.3808C33.1542 24.0708 32.2164 23.1375 32.2164 18.882C32.2164 14.6265 33.1497 13.6887 33.4598 13.3832C33.7699 13.0777 34.6972 12.1459 38.9593 12.1459C43.2215 12.1459 44.1443 13.0731 44.459 13.3832C44.7736 13.6932 45.6948 14.6265 45.6948 18.882C45.6948 23.1375 44.763 24.0662 44.459 24.3747V24.3808Z" fill="#FC6423"/>
<path d="M4.22851 54.293H0V67.6517H4.22851V54.293Z" fill="#0C1B2C"/>
<path d="M4.22846 51.128C4.22526 51.545 4.09854 51.9517 3.86429 52.2968C3.63004 52.642 3.29873 52.9101 2.91213 53.0675C2.52553 53.2249 2.10093 53.2644 1.69188 53.1811C1.28283 53.0978 0.90762 52.8954 0.613554 52.5994C0.319489 52.3034 0.119731 51.9271 0.0394566 51.5179C-0.040818 51.1087 0.00198665 50.6849 0.162475 50.3C0.322963 49.915 0.593947 49.5862 0.941275 49.3548C1.2886 49.1235 1.69673 49 2.1142 49C2.39291 49.0011 2.66868 49.0569 2.92577 49.1645C3.18286 49.272 3.41623 49.429 3.61256 49.6266C3.80889 49.8242 3.96432 50.0585 4.07 50.3161C4.17567 50.5737 4.22952 50.8496 4.22846 51.128Z" fill="#0C1B2C"/>
<path d="M10.6769 60.0295V67.6515H6.47266V54.2928H10.523V56.7202H10.6688C10.9398 55.9429 11.4574 55.2752 12.1431 54.8187C12.899 54.3367 13.782 54.0916 14.6786 54.1148C15.5318 54.0939 16.3738 54.3125 17.1087 54.7459C17.801 55.1702 18.3618 55.778 18.7289 56.5017C19.1227 57.3214 19.317 58.2224 19.2959 59.1314V67.6515H15.0674V59.9729C15.115 59.3424 14.9145 58.7183 14.5084 58.2333C14.3102 58.0198 14.0674 57.8527 13.7972 57.7436C13.527 57.6345 13.236 57.5862 12.945 57.6021C12.5346 57.5936 12.1292 57.6941 11.7704 57.8934C11.4249 58.0753 11.1425 58.3574 10.9604 58.7025C10.7696 59.1102 10.6727 59.5553 10.6769 60.0052" fill="#0C1B2C"/>
<path d="M21.863 67.6515V53.6131C21.8307 52.7195 22.0317 51.8327 22.4463 51.0401C22.8162 50.3762 23.3819 49.8422 24.0664 49.5109C24.8099 49.1588 25.6253 48.9843 26.4479 49.0011C27.0044 49 27.5599 49.046 28.1086 49.1387C28.627 49.2277 29.0158 49.3086 29.267 49.3733L28.5946 52.4885C28.4095 52.4297 28.2198 52.3864 28.0276 52.359C27.8211 52.3277 27.6126 52.3115 27.4038 52.3104C27.2197 52.2875 27.0329 52.3054 26.8565 52.3627C26.6801 52.42 26.5185 52.5155 26.3831 52.6422C26.1861 52.8987 26.0883 53.2176 26.1077 53.5403V67.6515H21.863ZM28.627 57.4241H20.1133V54.2928H28.6513L28.627 57.4241Z" fill="#0C1B2C"/>
<path d="M35.7968 64.6918C36.2705 64.7063 36.7316 64.5383 37.0848 64.2226C37.468 63.8697 37.748 63.4194 37.8948 62.9199C38.2728 61.6555 38.2728 60.3085 37.8948 59.0441C37.746 58.5432 37.4664 58.0907 37.0848 57.7333C36.7299 57.4205 36.27 57.2529 35.7968 57.264C35.3139 57.2534 34.844 57.4204 34.4764 57.7333C34.0932 58.0895 33.8133 58.5423 33.6663 59.0441C33.2993 60.31 33.2993 61.654 33.6663 62.9199C33.8113 63.4202 34.0916 63.871 34.4764 64.2226C34.842 64.5389 35.3133 64.7064 35.7968 64.6918ZM35.7968 67.9284C34.5449 67.9622 33.3066 67.6635 32.2082 67.0626C31.2195 66.4939 30.4175 65.6506 29.8995 64.6352C29.3664 63.5067 29.0898 62.2743 29.0898 61.0265C29.0898 59.7786 29.3664 58.5463 29.8995 57.4178C30.4197 56.404 31.2212 55.5613 32.2082 54.9904C33.3202 54.4216 34.5516 54.125 35.8008 54.125C37.0501 54.125 38.2815 54.4216 39.3934 54.9904C40.38 55.5592 41.1794 56.4027 41.694 57.4178C42.2272 58.5463 42.5037 59.7786 42.5037 61.0265C42.5037 62.2743 42.2272 63.5067 41.694 64.6352C41.1814 65.6517 40.3815 66.4957 39.3934 67.0626C38.2919 67.6627 37.0511 67.9614 35.7968 67.9284Z" fill="#0C1B2C"/>
<path d="M48.1651 60.9534C48.1514 61.5913 48.2501 62.2267 48.4567 62.8305C48.6064 63.3126 48.8868 63.7439 49.2668 64.0766C49.6484 64.3603 50.1114 64.5135 50.5872 64.5135C51.0629 64.5135 51.5259 64.3603 51.9075 64.0766C52.2878 63.7441 52.5683 63.3128 52.7176 62.8305C53.0957 61.6103 53.0957 60.3045 52.7176 59.0843C52.5677 58.6091 52.287 58.1857 51.9075 57.8625C51.5297 57.5658 51.0595 57.4111 50.579 57.4256C50.1021 57.4086 49.6344 57.5605 49.2587 57.8544C48.8778 58.1731 48.5966 58.5943 48.4486 59.0681C48.2414 59.6746 48.1427 60.3127 48.157 60.9534H48.1651ZM44.0176 67.6368V49.8359H48.2461V56.576H48.3271C48.5167 56.1524 48.7648 55.7575 49.0642 55.4027C49.4094 55.0134 49.8313 54.6993 50.3036 54.4803C50.8648 54.2244 51.4771 54.0998 52.0939 54.1162C53.0101 54.1127 53.9087 54.3679 54.686 54.8525C55.5393 55.3976 56.2149 56.1793 56.6302 57.1019C57.1715 58.3201 57.4264 59.6458 57.3754 60.9776C57.4178 62.282 57.1745 63.5798 56.6626 64.7805C56.2602 65.7168 55.5929 66.5154 54.7427 67.0785C53.9448 67.5865 53.0157 67.8509 52.0696 67.839C51.4753 67.8543 50.8846 67.744 50.336 67.5154C49.868 67.304 49.4488 66.9982 49.1047 66.6173C48.7834 66.2788 48.523 65.8873 48.3352 65.4602H48.2056V67.6287L44.0176 67.6368Z" fill="#0C1B2C"/>
<path d="M69.9419 62.8615C70.0928 63.3339 70.3735 63.7545 70.752 64.0752C71.13 64.3649 71.5961 64.5162 72.0724 64.504C72.5528 64.5185 73.0231 64.3639 73.4009 64.0671C73.7787 63.7424 74.0591 63.3195 74.211 62.8453C74.4206 62.2363 74.5247 61.596 74.5188 60.952C74.53 60.3122 74.4342 59.675 74.2353 59.0667C74.0881 58.5857 73.8072 58.1564 73.4252 57.8287C73.0436 57.545 72.5805 57.3918 72.1048 57.3918C71.6291 57.3918 71.166 57.545 70.7844 57.8287C70.4054 58.159 70.125 58.5874 69.9743 59.0667C69.7602 59.672 69.6533 60.31 69.6584 60.952C69.6442 61.5926 69.7429 62.2308 69.95 62.8372L69.9419 62.8615ZM69.6584 54.2928V56.4613H69.788C69.9881 56.0312 70.2623 55.6395 70.5981 55.3043C70.9423 54.9296 71.3619 54.6318 71.8294 54.4304C72.3773 54.1988 72.9681 54.0857 73.5629 54.0987C74.514 54.1013 75.4435 54.3826 76.2361 54.9078C77.0882 55.4687 77.756 56.2679 78.1559 57.2057C79.1247 59.6738 79.1247 62.4162 78.1559 64.8843C77.7113 65.7998 77.0107 66.567 76.1389 67.0933C75.3602 67.5746 74.4625 67.8296 73.5467 67.8296C72.93 67.846 72.3177 67.7214 71.7565 67.4655C71.2874 67.2453 70.8705 66.9281 70.5333 66.535C70.2252 66.185 69.9738 65.7892 69.788 65.3617H69.707V72.1018H65.4785V54.3009L69.6584 54.2928Z" fill="#0C1B2C"/>
<path d="M63.2812 54.293H59.0527V67.6517H63.2812V54.293Z" fill="#0C1B2C"/>
<path d="M63.2831 51.128C63.2799 51.545 63.1532 51.9517 62.919 52.2968C62.6847 52.642 62.3534 52.9101 61.9668 53.0675C61.5802 53.2249 61.1556 53.2644 60.7466 53.1811C60.3375 53.0978 59.9623 52.8954 59.6682 52.5994C59.3742 52.3034 59.1744 51.9271 59.0941 51.5179C59.0139 51.1087 59.0567 50.6849 59.2172 50.3C59.3776 49.915 59.6486 49.5862 59.996 49.3548C60.3433 49.1235 60.7514 49 61.1689 49C61.4476 49.0011 61.7234 49.0569 61.9805 49.1645C62.2375 49.272 62.4709 49.429 62.6672 49.6266C62.8636 49.8242 63.019 50.0585 63.1247 50.3161C63.2304 50.5737 63.2842 50.8496 63.2831 51.128Z" fill="#0C1B2C"/>
</svg>
