<svg width="40" height="40" viewBox="0 0 40 40" fill="none" xmlns="http://www.w3.org/2000/svg">
<g clip-path="url(#clip0_6183_74987)">
<path fill-rule="evenodd" clip-rule="evenodd" d="M20 4.76562C11.198 4.76562 4.375 11.2131 4.375 19.9219C4.375 24.4771 6.24188 28.4134 9.28213 31.1322C9.53734 31.3606 9.69141 31.6806 9.70187 32.0231L9.78697 34.8025C9.81416 35.6891 10.7299 36.2659 11.5412 35.9078L14.6425 34.5387C14.9054 34.4228 15.2 34.4013 15.477 34.4775C16.9022 34.8694 18.419 35.0781 20 35.0781C28.802 35.0781 35.625 28.6306 35.625 19.9219C35.625 11.2131 28.802 4.76562 20 4.76562Z" fill="url(#paint0_radial_6183_74987)"/>
<path fill-rule="evenodd" clip-rule="evenodd" d="M10.6206 24.3538L15.2105 17.072C15.9406 15.9135 17.504 15.6251 18.5995 16.4466L22.25 19.1845C22.5849 19.4358 23.0458 19.4345 23.3793 19.1813L28.3095 15.4396C28.9676 14.9402 29.8266 15.7277 29.3862 16.4266L24.7963 23.7085C24.0662 24.8669 22.5028 25.1554 21.4073 24.3338L17.7567 21.5958C17.4218 21.3446 16.9609 21.346 16.6274 21.5991L11.6972 25.3408C11.0392 25.8401 10.1802 25.0526 10.6206 24.3538Z" fill="white"/>
</g>
<defs>
<radialGradient id="paint0_radial_6183_74987" cx="0" cy="0" r="1" gradientUnits="userSpaceOnUse" gradientTransform="translate(10.3898 35.8484) scale(34.0499 34.0498)">
<stop stop-color="#0099FF"/>
<stop offset="0.609754" stop-color="#A033FF"/>
<stop offset="0.934823" stop-color="#FF5280"/>
<stop offset="1" stop-color="#FF7061"/>
</radialGradient>
<clipPath id="clip0_6183_74987">
<rect width="40" height="40" fill="white"/>
</clipPath>
</defs>
</svg>
