<svg width="39" height="39" viewBox="0 0 39 39" fill="none" xmlns="http://www.w3.org/2000/svg">
<rect width="38.8571" height="38.8571" rx="19.4286" fill="#FC6423"/>
<path d="M16.1872 17.1869C17.0802 17.1869 17.8041 16.463 17.8041 15.57C17.8041 14.677 17.0802 13.9531 16.1872 13.9531C15.2942 13.9531 14.5703 14.677 14.5703 15.57C14.5703 16.463 15.2942 17.1869 16.1872 17.1869Z" fill="white"/>
<path d="M10.5156 21.2406H16.9994L23.475 14.7568L28.3419 19.6156" stroke="white" stroke-width="1.99" stroke-linecap="round" stroke-linejoin="round"/>
<path d="M27.4578 9.86586H11.4028C11.2821 9.8613 11.1617 9.88172 11.0492 9.92584C10.9368 9.96995 10.8346 10.0368 10.7492 10.1222C10.6638 10.2077 10.5969 10.3098 10.5528 10.4223C10.5087 10.5348 10.4883 10.6551 10.4928 10.7759V29.4634C10.4924 29.5991 10.531 29.7321 10.6042 29.8464C10.6773 29.9608 10.7818 30.0516 10.9052 30.1082C11.0285 30.1647 11.1656 30.1846 11.3 30.1653C11.4343 30.1461 11.5603 30.0885 11.6628 29.9996L15.3678 26.1159H27.5553C27.7708 26.1159 27.9775 26.0303 28.1298 25.8779C28.2822 25.7255 28.3678 25.5188 28.3678 25.3034V10.7759C28.3724 10.6551 28.352 10.5348 28.3078 10.4223C28.2637 10.3098 28.1969 10.2077 28.1114 10.1222C28.026 10.0368 27.9238 9.96995 27.8114 9.92584C27.6989 9.88172 27.5785 9.8613 27.4578 9.86586V9.86586Z" stroke="white" stroke-width="1.99" stroke-linecap="round" stroke-linejoin="round"/>
</svg>
