<svg width="39" height="39" viewBox="0 0 39 39" fill="none" xmlns="http://www.w3.org/2000/svg">
<rect width="38.8571" height="38.8571" rx="19.4286" fill="#FC6423"/>
<path d="M27.4816 9.86621H11.3778C11.1429 9.86621 10.9177 9.95952 10.7516 10.1256C10.5855 10.2917 10.4922 10.517 10.4922 10.7518V29.4393C10.4935 29.5743 10.5331 29.7062 10.6062 29.8196C10.6794 29.9331 10.7831 30.0235 10.9055 30.0805C11.0279 30.1374 11.1639 30.1585 11.2978 30.1414C11.4317 30.1243 11.5581 30.0696 11.6622 29.9837L15.3672 26.1162H27.5547C27.7702 26.1162 27.9768 26.0306 28.1292 25.8782C28.2816 25.7259 28.3672 25.5192 28.3672 25.3037V10.7518C28.3672 10.517 28.2739 10.2917 28.1078 10.1256C27.9417 9.95952 27.7164 9.86621 27.4816 9.86621V9.86621Z" stroke="white" stroke-width="2" stroke-linecap="round" stroke-linejoin="round"/>
<path d="M22.7366 14.7412H16.1878C15.7346 14.7412 15.3672 15.1086 15.3672 15.5618V20.3393C15.3672 20.7926 15.7346 21.16 16.1878 21.16H22.7366C23.1898 21.16 23.5572 20.7926 23.5572 20.3393V15.5618C23.5572 15.1086 23.1898 14.7412 22.7366 14.7412Z" stroke="white" stroke-width="2" stroke-linecap="round" stroke-linejoin="round"/>
</svg>
