<svg width="37" height="37" viewBox="0 0 37 37" fill="none" xmlns="http://www.w3.org/2000/svg">
<rect width="36.8571" height="36.8571" rx="18.4286" fill="#FC6423"/>
<path d="M22.6484 13.4766H15.8984C15.6995 13.4766 15.5088 13.5556 15.3681 13.6962C15.2275 13.8369 15.1484 14.0277 15.1484 14.2266C15.1484 14.4255 15.2275 14.6162 15.3681 14.7569C15.5088 14.8975 15.6995 14.9766 15.8984 14.9766H22.6484C22.8473 14.9766 23.0381 14.8975 23.1788 14.7569C23.3194 14.6162 23.3984 14.4255 23.3984 14.2266C23.3984 14.0277 23.3194 13.8369 23.1788 13.6962C23.0381 13.5556 22.8473 13.4766 22.6484 13.4766Z" fill="white"/>
<path d="M19.6484 17.2266H15.8984C15.6995 17.2266 15.5088 17.3056 15.3681 17.4462C15.2275 17.5869 15.1484 17.7777 15.1484 17.9766C15.1484 18.1755 15.2275 18.3662 15.3681 18.5069C15.5088 18.6475 15.6995 18.7266 15.8984 18.7266H19.6484C19.8473 18.7266 20.0381 18.6475 20.1788 18.5069C20.3194 18.3662 20.3984 18.1755 20.3984 17.9766C20.3984 17.7777 20.3194 17.5869 20.1788 17.4462C20.0381 17.3056 19.8473 17.2266 19.6484 17.2266Z" fill="white"/>
<path d="M26.309 9.72616H11.489C11.3776 9.72195 11.2665 9.7408 11.1626 9.78153C11.0588 9.82225 10.9645 9.88397 10.8857 9.96283C10.8068 10.0417 10.7451 10.136 10.7044 10.2398C10.6637 10.3436 10.6448 10.4547 10.649 10.5662V27.8162C10.6486 27.9414 10.6843 28.0642 10.7518 28.1697C10.8193 28.2753 10.9158 28.3592 11.0296 28.4114C11.1435 28.4636 11.27 28.4819 11.3941 28.4641C11.5181 28.4463 11.6344 28.3932 11.729 28.3112L15.149 24.7262H26.399C26.5979 24.7262 26.7887 24.6471 26.9293 24.5065C27.07 24.3658 27.149 24.1751 27.149 23.9762V10.5662C27.1532 10.4547 27.1344 10.3436 27.0937 10.2398C27.0529 10.136 26.9912 10.0417 26.9124 9.96283C26.8335 9.88397 26.7392 9.82225 26.6354 9.78153C26.5316 9.7408 26.4205 9.72195 26.309 9.72616V9.72616Z" stroke="white" stroke-width="2" stroke-linecap="round" stroke-linejoin="round"/>
</svg>
