<svg width="36" height="36" viewBox="0 0 36 36" fill="none" xmlns="http://www.w3.org/2000/svg">
<path d="M31.0972 4.27178C30.2377 3.47876 26.7647 0.957515 19.0286 0.923262C19.0286 0.923262 9.90582 0.373133 5.45861 4.45239C2.98303 6.92848 2.11216 10.5515 2.0203 15.0434C1.92844 19.5352 1.80959 27.9532 9.92399 30.2358H9.93177L9.92658 33.7187C9.92658 33.7187 9.87468 35.1288 10.8032 35.4163C11.9262 35.7651 12.5854 34.6934 13.6576 33.5381C14.2461 32.9039 15.0589 31.9723 15.6713 31.2602C21.2208 31.7273 25.489 30.6598 25.9737 30.502C27.0942 30.1387 33.4347 29.326 34.4659 20.909C35.5304 12.2331 33.9511 6.74528 31.0972 4.27178ZM32.0376 20.2867C31.1672 27.3149 26.0246 27.7565 25.0764 28.0607C24.6731 28.1904 20.9245 29.123 16.2105 28.8153C16.2105 28.8153 12.698 33.0528 11.6008 34.1546C11.4296 34.327 11.2282 34.3965 11.0938 34.3622C10.9049 34.3161 10.853 34.0924 10.8551 33.7654C10.8582 33.2983 10.8852 27.9776 10.8852 27.9776C10.8852 27.9776 10.881 27.9776 10.8852 27.9776C4.02101 26.0719 4.42115 18.9073 4.49899 15.1555C4.57684 11.4037 5.28163 8.33027 7.37523 6.26314C11.1369 2.85598 18.8859 3.3651 18.8859 3.3651C25.4298 3.39365 28.5656 5.36425 29.2927 6.0244C31.707 8.09154 32.937 13.038 32.0376 20.2847V20.2867Z" fill="#7360F2"/>
<path d="M22.2162 14.8519C22.1311 13.1361 21.2596 12.2349 19.6016 12.1484" stroke="#7360F2" stroke-width="0.875015" stroke-linecap="round" stroke-linejoin="round"/>
<path d="M24.4606 15.6007C24.4952 14.0022 24.0217 12.6667 23.0401 11.5941C22.054 10.5178 20.6891 9.92507 18.9375 9.79688" stroke="#7360F2" stroke-width="0.875015" stroke-linecap="round" stroke-linejoin="round"/>
<path d="M26.7564 16.4957C26.7353 13.7219 25.9065 11.5373 24.27 9.94193C22.6334 8.34655 20.5981 7.54039 18.1641 7.52344" stroke="#7360F2" stroke-width="0.875015" stroke-linecap="round" stroke-linejoin="round"/>
<path d="M19.6829 20.7038C19.6829 20.7038 20.2979 20.7557 20.629 20.3477L21.2746 19.5355C21.586 19.1328 22.3375 18.8759 23.0734 19.2859C23.6249 19.6004 24.1603 19.9423 24.6776 20.3104C25.166 20.6695 26.1661 21.5041 26.1692 21.5041C26.6456 21.9063 26.7556 22.4969 26.4313 23.1197C26.4313 23.1233 26.4287 23.1295 26.4287 23.1326C26.0714 23.752 25.6179 24.3105 25.085 24.7872C25.0788 24.7903 25.0788 24.7934 25.0731 24.7965C24.6101 25.1833 24.1553 25.4032 23.7087 25.4562C23.6429 25.4677 23.5761 25.4718 23.5094 25.4686C23.3124 25.4705 23.1164 25.4404 22.9291 25.3793L22.9146 25.3581C22.2264 25.164 21.0774 24.6782 19.1639 23.6226C18.0566 23.0189 17.0024 22.3225 16.0126 21.5409C15.5165 21.1494 15.0432 20.7297 14.5952 20.2839L14.5475 20.2362L14.4997 20.1884L14.452 20.1407C14.4359 20.1251 14.4203 20.109 14.4042 20.0929C13.9585 19.6449 13.5388 19.1717 13.1472 18.6756C12.3657 17.6859 11.6694 16.6319 11.0656 15.5248C10.0099 13.6108 9.52417 12.4627 9.33007 11.7735L9.30879 11.759C9.24795 11.5717 9.21798 11.3757 9.22005 11.1788C9.21641 11.1121 9.22042 11.0452 9.23198 10.9795C9.28769 10.5335 9.50791 10.0783 9.89266 9.61402C9.89577 9.60831 9.89888 9.60831 9.902 9.60208C10.3786 9.06924 10.9371 8.61583 11.5565 8.25894C11.5596 8.25894 11.5659 8.25582 11.5695 8.25582C12.1923 7.93145 12.7829 8.04148 13.1846 8.51532C13.1877 8.51843 14.0207 9.51852 14.3783 10.0069C14.7464 10.5247 15.0883 11.0606 15.4028 11.6126C15.8128 12.348 15.5559 13.1011 15.1531 13.4115L14.3409 14.0571C13.9309 14.3882 13.9849 15.0032 13.9849 15.0032C13.9849 15.0032 15.1879 19.5563 19.6829 20.7038Z" fill="#7360F2"/>
</svg>
