<svg width="40" height="40" viewBox="0 0 40 40" fill="none" xmlns="http://www.w3.org/2000/svg">
<path d="M3.05469 36.562L5.44098 27.8491C3.9692 25.2991 3.19501 22.4063 3.19582 19.4426C3.19985 10.1716 10.7442 2.62891 20.016 2.62891C24.5152 2.63052 28.7378 4.38213 31.9136 7.56036C35.0886 10.7386 36.8369 14.9636 36.8353 19.4563C36.8313 28.7265 29.2853 36.2708 20.016 36.2708C20.0152 36.2708 20.0168 36.2708 20.016 36.2708H20.0087C17.1942 36.27 14.4281 35.5636 11.9716 34.2241L3.05469 36.562ZM12.3837 31.1805L12.8942 31.4829C15.0402 32.7563 17.5007 33.4297 20.0095 33.4313H20.0152C27.72 33.4313 33.9918 27.162 33.995 19.4555C33.9958 15.7208 32.5434 12.2096 29.9039 9.56842C27.2644 6.92729 23.7547 5.47165 20.02 5.47004C12.3087 5.47004 6.03775 11.7386 6.03453 19.4442C6.03372 22.0846 6.77243 24.6563 8.17162 26.8813L8.50469 27.4104L7.09178 32.5676L12.3837 31.1805Z" fill="white"/>
<path d="M3.64062 35.975L5.94466 27.5637C4.52369 25.1016 3.77611 22.3089 3.77692 19.4484C3.78014 10.4992 11.064 3.21777 20.014 3.21777C24.3576 3.21939 28.435 4.91052 31.4995 7.97826C34.5656 11.046 36.2527 15.1242 36.2511 19.4613C36.2479 28.4113 28.9632 35.6936 20.0148 35.6936C20.014 35.6936 20.0156 35.6936 20.0148 35.6936H20.0076C17.2898 35.6928 14.6197 35.0105 12.2487 33.7178L3.64062 35.975Z" fill="url(#paint0_linear_6183_74983)"/>
<path d="M3.05469 36.562L5.44098 27.8491C3.9692 25.2991 3.19501 22.4063 3.19582 19.4426C3.19985 10.1716 10.7442 2.62891 20.016 2.62891C24.5152 2.63052 28.7378 4.38213 31.9136 7.56036C35.0886 10.7386 36.8369 14.9636 36.8353 19.4563C36.8313 28.7265 29.2853 36.2708 20.016 36.2708C20.0152 36.2708 20.0168 36.2708 20.016 36.2708H20.0087C17.1942 36.27 14.4281 35.5636 11.9716 34.2241L3.05469 36.562ZM12.3837 31.1805L12.8942 31.4829C15.0402 32.7563 17.5007 33.4297 20.0095 33.4313H20.0152C27.72 33.4313 33.9918 27.162 33.995 19.4555C33.9958 15.7208 32.5434 12.2096 29.9039 9.56842C27.2644 6.92729 23.7547 5.47165 20.02 5.47004C12.3087 5.47004 6.03775 11.7386 6.03453 19.4442C6.03372 22.0846 6.77243 24.6563 8.17162 26.8813L8.50469 27.4104L7.09178 32.5676L12.3837 31.1805Z" fill="url(#paint1_linear_6183_74983)"/>
<path fill-rule="evenodd" clip-rule="evenodd" d="M15.8123 12.4142C15.4978 11.7142 15.1663 11.7005 14.8663 11.6884C14.6212 11.6779 14.3413 11.6787 14.0607 11.6787C13.7808 11.6787 13.3252 11.7844 12.9397 12.2045C12.5542 12.6247 11.4688 13.6416 11.4688 15.7094C11.4688 17.7771 12.9752 19.7755 13.1849 20.0561C13.3954 20.336 16.0921 24.715 20.3639 26.3997C23.9139 27.7997 24.6365 27.5215 25.4075 27.4513C26.1784 27.3811 27.8937 26.4352 28.2446 25.4537C28.5946 24.4723 28.5946 23.6311 28.4897 23.4553C28.3849 23.2803 28.1042 23.1755 27.6841 22.965C27.2639 22.7545 25.1978 21.7376 24.8123 21.5981C24.4268 21.4578 24.147 21.3876 23.8663 21.8086C23.5865 22.2287 22.7808 23.1755 22.5357 23.4553C22.2905 23.736 22.0454 23.7715 21.6252 23.561C21.205 23.3505 19.851 22.9069 18.2454 21.4755C16.9962 20.3618 16.1526 18.986 15.9075 18.565C15.6623 18.1449 15.8808 17.9166 16.0921 17.7078C16.2808 17.5199 16.5123 17.2174 16.7228 16.9715C16.9325 16.7263 17.0026 16.5513 17.1429 16.2707C17.2833 15.99 17.2131 15.7449 17.1083 15.5344C17.0026 15.3239 16.1857 13.2449 15.8123 12.4142Z" fill="white"/>
<defs>
<linearGradient id="paint0_linear_6183_74983" x1="19.946" y1="35.9752" x2="19.946" y2="3.21764" gradientUnits="userSpaceOnUse">
<stop stop-color="#20B038"/>
<stop offset="1" stop-color="#60D66A"/>
</linearGradient>
<linearGradient id="paint1_linear_6183_74983" x1="19.9449" y1="36.5622" x2="19.9449" y2="2.62991" gradientUnits="userSpaceOnUse">
<stop stop-color="#F9F9F9"/>
<stop offset="1" stop-color="white"/>
</linearGradient>
</defs>
</svg>
